<svg width="694" height="230" viewBox="0 0 694 230" fill="none" xmlns="http://www.w3.org/2000/svg">
<path d="M0.850601 177.275V15.3582H29.6214V177.275H0.850601Z" fill="#503324"/>
<path d="M83.1395 179.983C73.5562 179.983 65.6864 178.447 59.5353 175.379C53.3791 172.296 48.8062 168.207 45.8062 163.108C42.8166 158.014 41.327 152.389 41.327 146.233C41.327 135.9 45.3687 127.514 53.452 121.066C61.5457 114.608 73.6916 111.379 89.8895 111.379H118.223V108.691C118.223 101.04 116.046 95.4154 111.702 91.8165C107.353 88.2227 101.957 86.4207 95.5145 86.4207C89.6655 86.4207 84.5666 87.8113 80.2228 90.5873C75.8739 93.3686 73.1707 97.4519 72.1187 102.837H44.0145C44.7645 94.7436 47.4989 87.7019 52.2228 81.7123C56.9416 75.7123 63.0562 71.1029 70.5562 67.879C78.0562 64.6602 86.452 63.0457 95.7437 63.0457C111.629 63.0457 124.145 67.0196 133.285 74.9623C142.436 82.9102 147.014 94.1498 147.014 108.691V177.275H122.494L119.806 159.275C116.499 165.275 111.889 170.228 105.973 174.129C100.056 178.03 92.4416 179.983 83.1395 179.983ZM89.6603 157.483C97.9103 157.483 104.317 154.79 108.889 149.4C113.473 143.999 116.358 137.327 117.556 129.379H93.0353C85.3947 129.379 79.9207 130.77 76.6187 133.546C73.327 136.311 71.6812 139.723 71.6812 143.775C71.6812 148.124 73.327 151.499 76.6187 153.9C79.9207 156.29 84.2697 157.483 89.6603 157.483Z" fill="#503324"/>
<path d="M207.273 143.983C201.883 143.983 196.862 143.389 192.211 142.191L183.898 150.525C186.44 151.874 189.883 152.999 194.231 153.9C198.575 154.79 205.627 155.686 215.377 156.587C230.221 157.936 241.013 161.457 247.752 167.15C254.502 172.848 257.877 180.718 257.877 190.775C257.877 197.369 256.075 203.629 252.481 209.546C248.883 215.462 243.336 220.254 235.836 223.921C228.336 227.598 218.742 229.441 207.065 229.441C191.159 229.441 178.336 226.473 168.586 220.546C158.846 214.629 153.981 205.754 153.981 193.921C153.981 183.879 158.856 175.186 168.606 167.837C165.606 166.494 163.013 165.066 160.836 163.566C158.669 162.066 156.758 160.494 155.106 158.837V153.671L174.669 132.983C165.971 125.332 161.627 115.514 161.627 103.525C161.627 96.0248 163.461 89.2071 167.127 83.0665C170.804 76.9154 176.023 72.0404 182.773 68.4415C189.523 64.8477 197.69 63.0457 207.273 63.0457C213.575 63.0457 219.424 63.9415 224.815 65.7332H267.106V83.2748L247.981 84.629C250.981 90.3269 252.481 96.6238 252.481 103.525C252.481 111.014 250.679 117.832 247.086 123.983C243.487 130.124 238.278 134.994 231.461 138.587C224.638 142.186 216.575 143.983 207.273 143.983ZM207.273 121.962C213.117 121.962 217.95 120.389 221.773 117.233C225.606 114.082 227.523 109.582 227.523 103.733C227.523 97.8894 225.606 93.3946 221.773 90.254C217.95 87.1029 213.117 85.5248 207.273 85.5248C201.133 85.5248 196.19 87.1029 192.44 90.254C188.69 93.3946 186.815 97.8894 186.815 103.733C186.815 109.582 188.69 114.082 192.44 117.233C196.19 120.389 201.133 121.962 207.273 121.962ZM180.294 190.983C180.294 196.535 182.877 200.697 188.044 203.462C193.221 206.238 199.565 207.629 207.065 207.629C214.258 207.629 220.096 206.16 224.586 203.233C229.086 200.316 231.336 196.384 231.336 191.441C231.336 187.4 229.867 184.025 226.94 181.316C224.023 178.619 218.216 176.978 209.523 176.379C203.383 175.921 197.69 175.249 192.44 174.358C188.091 176.749 184.981 179.363 183.106 182.212C181.231 185.072 180.294 187.994 180.294 190.983Z" fill="#503324"/>
<path d="M327.149 179.983C316.342 179.983 306.629 177.509 298.004 172.566C289.389 167.608 282.571 160.749 277.545 151.983C272.53 143.207 270.024 133.046 270.024 121.504C270.024 109.962 272.571 99.8113 277.67 91.0457C282.764 82.2696 289.618 75.4102 298.233 70.4623C306.858 65.5196 316.566 63.0457 327.358 63.0457C338.009 63.0457 347.639 65.5196 356.254 70.4623C364.879 75.4102 371.696 82.2696 376.712 91.0457C381.738 99.8113 384.254 109.962 384.254 121.504C384.254 133.046 381.738 143.207 376.712 151.983C371.696 160.749 364.842 167.608 356.149 172.566C347.452 177.509 337.785 179.983 327.149 179.983ZM327.149 155.004C334.634 155.004 341.149 152.202 346.691 146.587C352.243 140.962 355.024 132.603 355.024 121.504C355.024 110.41 352.243 102.056 346.691 96.4415C341.149 90.8165 334.701 88.004 327.358 88.004C319.717 88.004 313.16 90.8165 307.691 96.4415C302.217 102.056 299.483 110.41 299.483 121.504C299.483 132.603 302.217 140.962 307.691 146.587C313.16 152.202 319.649 155.004 327.149 155.004Z" fill="#503324"/>
<path d="M445.2 177.275C433.503 177.275 424.138 174.431 417.096 168.733C410.055 163.04 406.534 152.921 406.534 138.379V89.7957H387.409V65.7332H406.534L409.888 35.8373H435.305V65.7332H465.45V89.7957H435.305V138.587C435.305 143.994 436.461 147.707 438.784 149.733C441.117 151.749 445.128 152.754 450.825 152.754H464.763V177.275H445.2Z" fill="#503324"/>
<path d="M525.482 177.275C513.784 177.275 504.42 174.431 497.378 168.733C490.336 163.04 486.815 152.921 486.815 138.379V89.7957H467.69V65.7332H486.815L490.17 35.8373H515.586V65.7332H545.732V89.7957H515.586V138.587C515.586 143.994 516.743 147.707 519.065 149.733C521.399 151.749 525.409 152.754 531.107 152.754H545.045V177.275H525.482Z" fill="#503324"/>
<path d="M609.597 179.983C598.79 179.983 589.076 177.509 580.451 172.566C571.837 167.608 565.019 160.749 559.993 151.983C554.977 143.207 552.472 133.046 552.472 121.504C552.472 109.962 555.019 99.8113 560.118 91.0457C565.212 82.2696 572.066 75.4102 580.681 70.4623C589.306 65.5196 599.014 63.0457 609.806 63.0457C620.457 63.0457 630.087 65.5196 638.701 70.4623C647.326 75.4102 654.144 82.2696 659.16 91.0457C664.186 99.8113 666.701 109.962 666.701 121.504C666.701 133.046 664.186 143.207 659.16 151.983C654.144 160.749 647.29 167.608 638.597 172.566C629.899 177.509 620.233 179.983 609.597 179.983ZM609.597 155.004C617.082 155.004 623.597 152.202 629.139 146.587C634.691 140.962 637.472 132.603 637.472 121.504C637.472 110.41 634.691 102.056 629.139 96.4415C623.597 90.8165 617.149 88.004 609.806 88.004C602.165 88.004 595.608 90.8165 590.139 96.4415C584.665 102.056 581.931 110.41 581.931 121.504C581.931 132.603 584.665 140.962 590.139 146.587C595.608 152.202 602.097 155.004 609.597 155.004Z" fill="#503324"/>
<mask id="mask0_53_83" style="mask-type:luminance" maskUnits="userSpaceOnUse" x="618" y="0" width="76" height="74">
<path d="M618.667 0.333374H693.333V73.6667H618.667V0.333374Z" fill="white"/>
</mask>
<g mask="url(#mask0_53_83)">
<mask id="mask1_53_83" style="mask-type:luminance" maskUnits="userSpaceOnUse" x="593" y="-26" width="125" height="125">
<path d="M637.797 98.6094L593.958 54.7657L673.859 -25.1354L717.703 18.7032L637.797 98.6094Z" fill="white"/>
</mask>
<g mask="url(#mask1_53_83)">
<mask id="mask2_53_83" style="mask-type:luminance" maskUnits="userSpaceOnUse" x="594" y="-25" width="124" height="124">
<path d="M594.135 54.9427L637.974 98.7865L717.875 18.8802L674.036 -24.9583L594.135 54.9427Z" fill="white"/>
</mask>
<g mask="url(#mask2_53_83)">
<path d="M674.411 55.1927C694.401 35.2084 692.37 0.77606 692.37 0.77606C692.37 0.77606 657.521 -1.67186 637.531 18.3125C617.547 38.2969 619.995 73.1511 619.995 73.1511C619.995 73.1511 654.427 75.1771 674.411 55.1927Z" fill="#8F5D46"/>
</g>
</g>
</g>
<mask id="mask3_53_83" style="mask-type:luminance" maskUnits="userSpaceOnUse" x="573" y="32" width="43" height="43">
<path d="M573.333 32.3334H616V75H573.333V32.3334Z" fill="white"/>
</mask>
<g mask="url(#mask3_53_83)">
<mask id="mask4_53_83" style="mask-type:luminance" maskUnits="userSpaceOnUse" x="559" y="18" width="71" height="71">
<path d="M629.036 63.7761L604.292 88.5261L559.036 43.2709L583.781 18.5209L629.036 63.7761Z" fill="white"/>
</mask>
<g mask="url(#mask4_53_83)">
<mask id="mask5_53_83" style="mask-type:luminance" maskUnits="userSpaceOnUse" x="559" y="18" width="71" height="71">
<path d="M604.401 88.4167L629.146 63.6667L583.896 18.4115L559.146 43.1615L604.401 88.4167Z" fill="white"/>
</mask>
<g mask="url(#mask5_53_83)">
<path d="M604.531 43.1094C593.255 31.8281 573.828 32.9739 573.828 32.9739C573.828 32.9739 572.443 52.6406 583.724 63.9167C595 75.1979 614.667 73.8125 614.667 73.8125C614.667 73.8125 615.812 54.3854 604.531 43.1094Z" fill="#8F5D46"/>
</g>
</g>
</g>
</svg>
