<svg width="53" height="51" viewBox="0 0 53 51" fill="none" xmlns="http://www.w3.org/2000/svg">
<path d="M31.5153 4.54033L29.5258 4.74536L31.5153 4.54033ZM31.098 3.00289L32.4377 1.51796L32.4377 1.51796L31.098 3.00289ZM31.944 8.70055L29.9546 8.90557V8.90557L31.944 8.70055ZM32.7378 11.3352L33.5139 9.49193L33.5139 9.49193L32.7378 11.3352ZM35.1771 10.0619L33.9335 8.49552L33.9335 8.49552L35.1771 10.0619ZM38.6267 7.3232L37.3831 5.75682V5.75683L38.6267 7.3232ZM39.9859 6.56151L39.8867 8.55904H39.8867L39.9859 6.56151ZM41.263 7.45424L42.6558 6.0189V6.0189L41.263 7.45424ZM45.3715 11.4409L43.9787 12.8762V12.8762L45.3715 11.4409ZM46.3431 12.758L44.3456 12.8579V12.8579L46.3431 12.758ZM45.5077 14.1655L47.0367 15.4547V15.4547L45.5077 14.1655ZM42.8782 17.284L44.2924 18.6982L44.3525 18.6382L44.4072 18.5732L42.8782 17.284ZM42.8782 17.284L41.464 15.8698L41.4039 15.9299L41.3492 15.9948L42.8782 17.284ZM41.4889 19.7618L43.3412 19.0074L43.3412 19.0074L41.4889 19.7618ZM44.2141 20.5639L44.4072 18.5732L44.2141 20.5639ZM48.4953 20.9793L48.3022 22.97L48.4953 20.9793ZM50.0426 21.3902L48.5617 22.7344L48.5617 22.7344L50.0426 21.3902ZM50.0426 30.1237L48.5617 28.7795L48.5617 28.7796L50.0426 30.1237ZM48.4953 30.5346L48.3022 28.544L48.4953 30.5346ZM44.2149 30.95L44.4081 32.9406L44.2149 30.95ZM41.4898 31.752L39.6375 30.9976V30.9976L41.4898 31.752ZM42.8791 34.2299L44.4081 32.9406L42.8791 34.2299ZM45.5078 37.3475L47.0368 36.0582L45.5078 37.3475ZM46.3432 38.7549L44.3457 38.6551L46.3432 38.7549ZM45.3716 40.072L43.9788 38.6367L45.3716 40.072ZM41.2631 44.0587L42.6559 45.494V45.494L41.2631 44.0587ZM39.986 44.9514L40.0853 46.949L40.0853 46.949L39.986 44.9514ZM38.6268 44.1897L39.8703 42.6234L38.6268 44.1897ZM35.1772 41.451L33.9336 43.0174L33.9336 43.0174L35.1772 41.451ZM32.7379 40.1777L31.9618 38.3345L31.9617 38.3345L32.7379 40.1777ZM31.9441 42.8124L33.9336 43.0174L31.9441 42.8124ZM31.5153 46.9736L29.5258 46.7686L31.5153 46.9736ZM21.6594 46.9736L23.6489 46.7686L21.6594 46.9736ZM21.2307 42.8133L19.2412 43.0183L21.2307 42.8133ZM20.4369 40.1786L21.2131 38.3354L21.2131 38.3354L20.4369 40.1786ZM17.9976 41.4519L19.2412 43.0183H19.2412L17.9976 41.4519ZM14.5479 44.1908L13.3043 42.6244H13.3043L14.5479 44.1908ZM13.1886 44.9525L13.0893 46.95L13.0893 46.95L13.1886 44.9525ZM11.9115 44.0597L10.5187 45.4951H10.5187L11.9115 44.0597ZM7.80304 40.0731L9.19581 38.6378H9.19581L7.80304 40.0731ZM6.83145 38.756L8.82895 38.6561L6.83145 38.756ZM7.6668 37.3485L9.19581 38.6378L9.19581 38.6378L7.6668 37.3485ZM10.2963 34.2299L8.76734 32.9407L10.2963 34.2299ZM11.6857 31.7521L13.5379 30.9977L13.5379 30.9977L11.6857 31.7521ZM8.9605 30.95L8.76734 32.9407H8.76734L8.9605 30.95ZM4.6794 30.5346L4.87256 28.544H4.87256L4.6794 30.5346ZM3.13209 30.1237L4.61303 28.7795L4.61302 28.7795L3.13209 30.1237ZM3.13209 21.3902L4.61302 22.7344L4.61303 22.7344L3.13209 21.3902ZM4.6794 20.9793L4.48624 18.9887H4.48624L4.6794 20.9793ZM8.96139 20.5638L8.76823 18.5732L8.96139 20.5638ZM11.6865 19.7618L13.5388 20.5162L13.5388 20.5162L11.6865 19.7618ZM10.2972 17.2839L11.8263 15.9947L11.8263 15.9947L10.2972 17.2839ZM7.66691 14.1644L6.1379 15.4537L7.66691 14.1644ZM6.83156 12.757L8.82906 12.8568L6.83156 12.757ZM7.80315 11.4398L9.19592 12.8752L9.19592 12.8752L7.80315 11.4398ZM11.9116 7.45319L13.3044 8.88853L13.3044 8.88853L11.9116 7.45319ZM13.1887 6.56047L13.288 8.558H13.288L13.1887 6.56047ZM14.548 7.32215L15.7915 5.75578L15.7915 5.75578L14.548 7.32215ZM17.9977 10.061L19.2413 8.49462V8.49462L17.9977 10.061ZM20.437 11.3343L19.6609 9.49103L19.6609 9.49103L20.437 11.3343ZM21.2308 8.69965L19.2413 8.49462V8.49462L21.2308 8.69965ZM21.6594 4.54033L23.6489 4.74536L21.6594 4.54033ZM22.0768 3.00289L20.737 1.51796L20.737 1.51796L22.0768 3.00289ZM33.5048 4.33531C33.4663 3.96177 33.4216 3.49075 33.3277 3.09091C33.2208 2.63554 32.9992 2.02452 32.4377 1.51796L29.7582 4.48783C29.6342 4.37599 29.5457 4.25065 29.4893 4.13992C29.4395 4.04221 29.4282 3.98213 29.4337 4.00551C29.4396 4.03063 29.4519 4.09419 29.4692 4.22973C29.4865 4.36464 29.5031 4.52494 29.5258 4.74536L33.5048 4.33531ZM33.9335 8.49552L33.5048 4.33531L29.5258 4.74536L29.9546 8.90557L33.9335 8.49552ZM33.5139 9.49193C33.7813 9.6045 33.9711 9.79087 34.078 9.95354C34.161 10.0798 34.1632 10.1448 34.1361 10.0386C34.1109 9.93973 34.0802 9.77481 34.0443 9.49862C34.0089 9.22614 33.9756 8.90428 33.9335 8.49552L29.9546 8.90557C30.0302 9.63966 30.1052 10.4196 30.2602 11.0271C30.417 11.642 30.8033 12.6907 31.9616 13.1784L33.5139 9.49193ZM33.9335 8.49552C33.6117 8.75103 33.3582 8.95211 33.1385 9.11721C32.9159 9.28455 32.7765 9.37784 32.6881 9.42889C32.5933 9.4837 32.6413 9.43986 32.7895 9.41099C32.9806 9.37379 33.2466 9.37935 33.5139 9.49193L31.9616 13.1784C33.12 13.6662 34.1401 13.2097 34.6895 12.8922C35.2323 12.5785 35.8427 12.0871 36.4206 11.6283L33.9335 8.49552ZM37.3831 5.75683L33.9335 8.49552L36.4206 11.6283L39.8702 8.88957L37.3831 5.75683ZM40.0852 4.56398C39.3461 4.52724 38.7678 4.79147 38.3747 5.02959C38.03 5.2384 37.6696 5.52935 37.3831 5.75682L39.8702 8.88957C40.0396 8.75511 40.1625 8.65769 40.2681 8.57793C40.3741 8.49784 40.4263 8.46351 40.4471 8.45089C40.4663 8.43925 40.4161 8.4726 40.3136 8.50523C40.1978 8.54211 40.0499 8.56716 39.8867 8.55904L40.0852 4.56398ZM42.6558 6.0189C42.3932 5.76414 42.0634 5.43888 41.7411 5.19691C41.3736 4.92098 40.8243 4.60071 40.0852 4.56398L39.8867 8.55904C39.7234 8.55093 39.5787 8.51134 39.4671 8.46315C39.3683 8.42052 39.3217 8.38236 39.3397 8.39585C39.3592 8.41047 39.4077 8.4498 39.5052 8.54001C39.6024 8.62985 39.715 8.73899 39.8702 8.88957L42.6558 6.0189ZM46.7642 10.0056L42.6558 6.0189L39.8702 8.88957L43.9787 12.8762L46.7642 10.0056ZM48.3406 12.6581C48.3018 11.8827 47.9517 11.3143 47.6548 10.94C47.3937 10.6108 47.0425 10.2756 46.7642 10.0056L43.9787 12.8762C44.1426 13.0352 44.262 13.1513 44.3605 13.2517C44.4595 13.3527 44.5037 13.404 44.5209 13.4257C44.5371 13.4461 44.4962 13.3993 44.4499 13.297C44.3973 13.1807 44.3541 13.029 44.3456 12.8579L48.3406 12.6581ZM47.0367 15.4547C47.2867 15.1583 47.6027 14.7897 47.8296 14.4361C48.0877 14.0341 48.3793 13.4335 48.3406 12.6581L44.3456 12.8579C44.337 12.6867 44.3649 12.5315 44.4056 12.4105C44.4414 12.3042 44.4775 12.2535 44.4634 12.2754C44.4484 12.2987 44.4096 12.3542 44.3212 12.4645C44.2332 12.5742 44.1259 12.7017 43.9787 12.8762L47.0367 15.4547ZM44.4072 18.5732L47.0367 15.4547L43.9787 12.8762L41.3492 15.9948L44.4072 18.5732ZM44.2924 18.6982L44.2924 18.6982L41.464 15.8698L41.464 15.8698L44.2924 18.6982ZM43.3412 19.0074C43.4545 19.2856 43.4533 19.5601 43.4104 19.7531C43.3774 19.901 43.3324 19.9453 43.3946 19.8447C43.4523 19.7515 43.5553 19.6073 43.7366 19.3805C43.9153 19.1568 44.1325 18.899 44.4072 18.5733L41.3492 15.9948C40.8539 16.5822 40.3302 17.195 39.9929 17.7403C39.6566 18.2839 39.1495 19.3202 39.6366 20.5162L43.3412 19.0074ZM44.4072 18.5732C43.9831 18.5321 43.6476 18.4994 43.3634 18.4643C43.0753 18.4286 42.9008 18.3975 42.7944 18.3711C42.6796 18.3426 42.7427 18.3428 42.8697 18.4256C43.0353 18.5337 43.2279 18.7292 43.3412 19.0074L39.6366 20.5162C40.1238 21.7122 41.2106 22.0994 41.831 22.2533C42.4534 22.4078 43.2562 22.4803 44.0209 22.5545L44.4072 18.5732ZM48.6885 18.9887L44.4072 18.5732L44.0209 22.5545L48.3022 22.97L48.6885 18.9887ZM51.5236 20.046C51.0129 19.4834 50.3977 19.264 49.9399 19.1592C49.5379 19.0672 49.0644 19.0252 48.6885 18.9887L48.3022 22.97C48.5239 22.9915 48.6853 23.0073 48.8211 23.0238C48.9576 23.0404 49.0217 23.0525 49.0472 23.0583C49.071 23.0638 49.0106 23.0528 48.9123 23.0033C48.8007 22.9471 48.6744 22.8586 48.5617 22.7344L51.5236 20.046ZM52.3022 22.97C52.3022 22.5923 52.306 22.1169 52.2533 21.7079C52.1932 21.2422 52.0342 20.6087 51.5235 20.046L48.5617 22.7344C48.4489 22.6102 48.3731 22.4759 48.3279 22.3595C48.2881 22.2568 48.283 22.1957 48.2862 22.2199C48.2895 22.2458 48.2953 22.3108 48.2987 22.4483C48.302 22.585 48.3022 22.7472 48.3022 22.97H52.3022ZM52.3022 28.544V22.97H48.3022V28.544H52.3022ZM51.5235 31.4679C52.0342 30.9053 52.1932 30.2718 52.2533 29.8061C52.306 29.397 52.3022 28.9217 52.3022 28.544H48.3022C48.3022 28.7668 48.302 28.9289 48.2987 29.0657C48.2953 29.2032 48.2895 29.2682 48.2862 29.2941C48.283 29.3183 48.2881 29.2572 48.3279 29.1545C48.3731 29.038 48.4489 28.9038 48.5617 28.7795L51.5235 31.4679ZM48.6885 32.5253C49.0644 32.4888 49.5379 32.4468 49.9399 32.3547C50.3977 32.2499 51.0129 32.0305 51.5236 31.4679L48.5617 28.7796C48.6744 28.6553 48.8007 28.5669 48.9123 28.5107C49.0106 28.4611 49.071 28.4502 49.0472 28.4556C49.0217 28.4614 48.9576 28.4735 48.8211 28.4901C48.6853 28.5067 48.5239 28.5225 48.3022 28.544L48.6885 32.5253ZM44.4081 32.9406L48.6885 32.5253L48.3022 28.544L44.0218 28.9593L44.4081 32.9406ZM43.3421 32.5064C43.2287 32.7846 43.0362 32.9802 42.8706 33.0883C42.7436 33.1711 42.6805 33.1713 42.7953 33.1428C42.9017 33.1164 43.0762 33.0852 43.3643 33.0496C43.6485 33.0145 43.984 32.9818 44.4081 32.9406L44.0218 28.9593C43.2571 29.0335 42.4542 29.1061 41.8319 29.2606C41.2115 29.4145 40.1246 29.8016 39.6375 30.9976L43.3421 32.5064ZM44.4081 32.9406C44.1334 32.6149 43.9162 32.357 43.7375 32.1334C43.5562 31.9066 43.4532 31.7624 43.3955 31.6691C43.3333 31.5686 43.3783 31.6128 43.4113 31.7608C43.4542 31.9538 43.4554 32.2282 43.3421 32.5064L39.6375 30.9976C39.1504 32.1936 39.6575 33.23 39.9938 33.7735C40.3312 34.3189 40.8548 34.9317 41.3501 35.5191L44.4081 32.9406ZM47.0368 36.0582L44.4081 32.9406L41.3501 35.5191L43.9788 38.6367L47.0368 36.0582ZM48.3407 38.8548C48.3795 38.0794 48.0878 37.4789 47.8297 37.0769C47.6028 36.7232 47.2868 36.3547 47.0368 36.0582L43.9788 38.6367C44.126 38.8113 44.2333 38.9387 44.3213 39.0484C44.4097 39.1588 44.4486 39.2142 44.4635 39.2375C44.4776 39.2594 44.4415 39.2088 44.4057 39.1024C44.365 38.9815 44.3371 38.8262 44.3457 38.6551L48.3407 38.8548ZM46.7644 41.5074C47.0426 41.2374 47.3938 40.9022 47.6549 40.573C47.9518 40.1987 48.3019 39.6302 48.3407 38.8548L44.3457 38.6551C44.3542 38.4839 44.3974 38.3322 44.45 38.2159C44.4963 38.1137 44.5372 38.0668 44.521 38.0873C44.5038 38.109 44.4597 38.1603 44.3606 38.2612C44.2621 38.3616 44.1427 38.4777 43.9788 38.6367L46.7644 41.5074ZM42.6559 45.494L46.7644 41.5074L43.9788 38.6367L39.8703 42.6234L42.6559 45.494ZM40.0853 46.949C40.8244 46.9122 41.3737 46.592 41.7412 46.316C42.0636 46.0741 42.3933 45.7488 42.6559 45.494L39.8703 42.6234C39.7152 42.7739 39.6025 42.8831 39.5054 42.9729C39.4078 43.0631 39.3593 43.1025 39.3398 43.1171C39.3218 43.1306 39.3685 43.0924 39.4672 43.0498C39.5788 43.0016 39.7235 42.962 39.8868 42.9539L40.0853 46.949ZM37.3832 45.7561C37.6697 45.9836 38.0301 46.2745 38.3748 46.4833C38.768 46.7215 39.3462 46.9857 40.0853 46.949L39.8868 42.9539C40.05 42.9458 40.1979 42.9708 40.3138 43.0077C40.4163 43.0403 40.4664 43.0737 40.4472 43.062C40.4264 43.0494 40.3742 43.0151 40.2682 42.935C40.1626 42.8552 40.0397 42.7578 39.8703 42.6234L37.3832 45.7561ZM33.9336 43.0174L37.3832 45.7561L39.8703 42.6234L36.4207 39.8847L33.9336 43.0174ZM33.514 42.021C33.2467 42.1336 32.9807 42.1391 32.7896 42.1019C32.6414 42.0731 32.5934 42.0292 32.6882 42.084C32.7766 42.1351 32.916 42.2284 33.1386 42.3957C33.3583 42.5608 33.6118 42.7619 33.9336 43.0174L36.4208 39.8847C35.8428 39.4258 35.2324 38.9344 34.6896 38.6208C34.1402 38.3033 33.1201 37.8467 31.9618 38.3345L33.514 42.021ZM33.9336 43.0174C33.9757 42.6087 34.009 42.2868 34.0444 42.0143C34.0803 41.7381 34.111 41.5732 34.1362 41.4743C34.1633 41.3682 34.1611 41.4331 34.0781 41.5594C33.9712 41.7221 33.7814 41.9084 33.514 42.021L31.9617 38.3345C30.8034 38.8222 30.4171 39.871 30.2603 40.4858C30.1054 41.0933 30.0303 41.8733 29.9547 42.6074L33.9336 43.0174ZM33.5048 47.1786L33.9336 43.0174L29.9547 42.6074L29.5258 46.7686L33.5048 47.1786ZM32.4377 49.996C32.9992 49.4894 33.2208 48.8784 33.3277 48.423C33.4216 48.0232 33.4663 47.5522 33.5048 47.1786L29.5258 46.7686C29.5031 46.989 29.4865 47.1493 29.4692 47.2842C29.4519 47.4198 29.4396 47.4833 29.4337 47.5084C29.4282 47.5318 29.4395 47.4717 29.4893 47.374C29.5457 47.2633 29.6342 47.138 29.7582 47.0261L32.4377 49.996ZM29.5258 50.7686C29.9014 50.7686 30.3745 50.7725 30.7818 50.72C31.2458 50.6603 31.8763 50.5026 32.4377 49.996L29.7582 47.0261C29.8821 46.9143 30.0159 46.8391 30.1318 46.7943C30.2341 46.7548 30.2951 46.7497 30.2712 46.7528C30.2456 46.7561 30.1811 46.7618 30.0445 46.7652C29.9086 46.7685 29.7474 46.7686 29.5258 46.7686V50.7686ZM23.6489 50.7686H29.5258V46.7686H23.6489V50.7686ZM20.737 49.996C21.2984 50.5026 21.9289 50.6603 22.3929 50.72C22.8002 50.7725 23.2734 50.7686 23.6489 50.7686V46.7686C23.4273 46.7686 23.2661 46.7685 23.1302 46.7652C22.9936 46.7618 22.9291 46.7561 22.9035 46.7528C22.8797 46.7497 22.9406 46.7548 23.0429 46.7943C23.1588 46.8391 23.2926 46.9143 23.4165 47.0261L20.737 49.996ZM19.6699 47.1786C19.7084 47.5522 19.7531 48.0232 19.847 48.423C19.954 48.8784 20.1755 49.4894 20.737 49.996L23.4165 47.0261C23.5405 47.138 23.629 47.2633 23.6854 47.374C23.7352 47.4717 23.7465 47.5318 23.741 47.5084C23.7351 47.4833 23.7228 47.4198 23.7055 47.2842C23.6882 47.1493 23.6716 46.989 23.6489 46.7686L19.6699 47.1786ZM19.2412 43.0183L19.6699 47.1786L23.6489 46.7686L23.2201 42.6083L19.2412 43.0183ZM19.6608 42.0219C19.3934 41.9093 19.2036 41.723 19.0967 41.5603C19.0137 41.434 19.0115 41.3691 19.0386 41.4752C19.0638 41.5741 19.0945 41.739 19.1304 42.0152C19.1658 42.2877 19.1991 42.6096 19.2412 43.0183L23.2201 42.6083C23.1445 41.8742 23.0694 41.0942 22.9145 40.4867C22.7577 39.8719 22.3714 38.8232 21.2131 38.3354L19.6608 42.0219ZM19.2412 43.0183C19.563 42.7628 19.8165 42.5617 20.0362 42.3966C20.2588 42.2293 20.3982 42.136 20.4866 42.0849C20.5814 42.0301 20.5334 42.074 20.3852 42.1028C20.1941 42.14 19.9281 42.1345 19.6608 42.0219L21.2131 38.3354C20.0547 37.8476 19.0346 38.3042 18.4852 38.6217C17.9424 38.9353 17.332 39.4267 16.7541 39.8856L19.2412 43.0183ZM15.7914 45.7572L19.2412 43.0183L16.7541 39.8856L13.3043 42.6244L15.7914 45.7572ZM13.0893 46.95C13.8284 46.9867 14.4067 46.7225 14.7998 46.4844C15.1445 46.2756 15.5049 45.9846 15.7914 45.7572L13.3043 42.6244C13.1349 42.7589 13.012 42.8563 12.9064 42.9361C12.8004 43.0161 12.7483 43.0505 12.7274 43.0631C12.7082 43.0747 12.7584 43.0414 12.8609 43.0087C12.9767 42.9719 13.1246 42.9468 13.2879 42.9549L13.0893 46.95ZM10.5187 45.4951C10.7813 45.7498 11.1111 46.0751 11.4334 46.3171C11.801 46.593 12.3502 46.9133 13.0893 46.95L13.2879 42.9549C13.4511 42.9631 13.5958 43.0026 13.7074 43.0508C13.8062 43.0935 13.8528 43.1316 13.8348 43.1181C13.8153 43.1035 13.7668 43.0642 13.6693 42.974C13.5721 42.8841 13.4595 42.775 13.3043 42.6244L10.5187 45.4951ZM6.41027 41.5084L10.5187 45.4951L13.3043 42.6244L9.19581 38.6378L6.41027 41.5084ZM4.83394 38.8559C4.87272 39.6313 5.22283 40.1997 5.51969 40.574C5.78081 40.9032 6.13201 41.2384 6.41027 41.5084L9.19581 38.6378C9.03196 38.4788 8.91248 38.3626 8.81398 38.2622C8.71497 38.1613 8.6708 38.11 8.65359 38.0883C8.6374 38.0679 8.67835 38.1147 8.7246 38.217C8.7772 38.3333 8.8204 38.485 8.82895 38.6561L4.83394 38.8559ZM6.13779 36.0593C5.88786 36.3557 5.57185 36.7243 5.34488 37.0779C5.08684 37.4799 4.79517 38.0805 4.83394 38.8559L8.82895 38.6561C8.83751 38.8273 8.80966 38.9825 8.76892 39.1035C8.73311 39.2098 8.69704 39.2605 8.71111 39.2386C8.72607 39.2153 8.76489 39.1598 8.85335 39.0495C8.94133 38.9398 9.04864 38.8123 9.19581 38.6378L6.13779 36.0593ZM8.76734 32.9407L6.13779 36.0593L9.19581 38.6378L11.8254 35.5192L8.76734 32.9407ZM9.83339 32.5065C9.72009 32.2283 9.72122 31.9538 9.7642 31.7608C9.79715 31.6129 9.84218 31.5687 9.77997 31.6692C9.72229 31.7624 9.6192 31.9067 9.43798 32.1334C9.25921 32.3571 9.04202 32.6149 8.76734 32.9407L11.8254 35.5192C12.3206 34.9318 12.8443 34.319 13.1817 33.7736C13.5179 33.2301 14.025 32.1937 13.5379 30.9977L9.83339 32.5065ZM8.76734 32.9407C9.19146 32.9818 9.52697 33.0145 9.81116 33.0497C10.0992 33.0853 10.2738 33.1165 10.3802 33.1429C10.4949 33.1713 10.4318 33.1712 10.3049 33.0883C10.1393 32.9803 9.9467 32.7847 9.83339 32.5065L13.5379 30.9977C13.0508 29.8017 11.9639 29.4146 11.3436 29.2606C10.7212 29.1062 9.91837 29.0336 9.15366 28.9594L8.76734 32.9407ZM4.48624 32.5253L8.76734 32.9407L9.15366 28.9594L4.87256 28.544L4.48624 32.5253ZM1.65115 31.4679C2.16183 32.0305 2.77703 32.2499 3.23476 32.3547C3.63679 32.4468 4.11029 32.4888 4.48624 32.5253L4.87256 28.544C4.6508 28.5225 4.48944 28.5067 4.3536 28.4901C4.21712 28.4735 4.15297 28.4614 4.12749 28.4556C4.10373 28.4502 4.16407 28.4611 4.26243 28.5107C4.37396 28.5669 4.50029 28.6553 4.61303 28.7795L1.65115 31.4679ZM0.872559 28.544C0.872559 28.9217 0.868662 29.397 0.92145 29.8061C0.981552 30.2718 1.14048 30.9053 1.65116 31.4679L4.61302 28.7795C4.72576 28.9038 4.80161 29.038 4.84676 29.1545C4.88658 29.2572 4.89167 29.3183 4.88855 29.2941C4.8852 29.2682 4.87937 29.2032 4.87602 29.0657C4.87268 28.9289 4.87256 28.7668 4.87256 28.544H0.872559ZM0.872559 22.97V28.544H4.87256V22.97H0.872559ZM1.65116 20.046C1.14048 20.6087 0.981552 21.2422 0.92145 21.7079C0.868662 22.1169 0.872559 22.5923 0.872559 22.97H4.87256C4.87256 22.7472 4.87268 22.585 4.87602 22.4482C4.87937 22.3108 4.8852 22.2458 4.88855 22.2199C4.89167 22.1957 4.88658 22.2568 4.84676 22.3595C4.80161 22.4759 4.72576 22.6102 4.61302 22.7344L1.65116 20.046ZM4.48624 18.9887C4.11029 19.0252 3.63679 19.0672 3.23476 19.1592C2.77703 19.264 2.16183 19.4834 1.65115 20.046L4.61303 22.7344C4.50029 22.8586 4.37397 22.9471 4.26243 23.0033C4.16407 23.0528 4.10373 23.0638 4.12749 23.0583C4.15297 23.0525 4.21712 23.0404 4.3536 23.0238C4.48944 23.0073 4.6508 22.9915 4.87256 22.97L4.48624 18.9887ZM8.76823 18.5732L4.48624 18.9887L4.87256 22.97L9.15455 22.5545L8.76823 18.5732ZM9.83428 19.0074C9.94759 18.7292 10.1402 18.5336 10.3057 18.4255C10.4327 18.3427 10.4958 18.3425 10.3811 18.371C10.2747 18.3974 10.1001 18.4286 9.81205 18.4642C9.52786 18.4993 9.19235 18.532 8.76823 18.5732L9.15455 22.5545C9.91926 22.4803 10.7221 22.4077 11.3445 22.2532C11.9648 22.0993 13.0517 21.7122 13.5388 20.5162L9.83428 19.0074ZM8.76823 18.5732C9.04291 18.8989 9.2601 19.1567 9.43887 19.3804C9.62009 19.6072 9.72318 19.7514 9.78086 19.8447C9.84307 19.9452 9.79804 19.901 9.76509 19.753C9.72211 19.56 9.72098 19.2856 9.83428 19.0074L13.5388 20.5162C14.0259 19.3202 13.5188 18.2838 13.1825 17.7403C12.8452 17.1949 12.3215 16.5821 11.8263 15.9947L8.76823 18.5732ZM6.1379 15.4537L8.76823 18.5732L11.8263 15.9947L9.19592 12.8752L6.1379 15.4537ZM4.83405 12.6571C4.79528 13.4325 5.08695 14.033 5.34499 14.435C5.57196 14.7887 5.88797 15.1572 6.1379 15.4537L9.19592 12.8752C9.04875 12.7006 8.94144 12.5732 8.85346 12.4635C8.765 12.3531 8.72618 12.2977 8.71122 12.2744C8.69714 12.2524 8.73321 12.3031 8.76903 12.4095C8.80977 12.5304 8.83762 12.6857 8.82906 12.8568L4.83405 12.6571ZM6.41038 10.0045C6.13212 10.2745 5.78092 10.6097 5.5198 10.9389C5.22294 11.3132 4.87282 11.8817 4.83405 12.6571L8.82906 12.8568C8.8205 13.028 8.77731 13.1797 8.7247 13.296C8.67846 13.3982 8.63751 13.4451 8.6537 13.4246C8.67091 13.4029 8.71508 13.3516 8.81409 13.2507C8.91258 13.1503 9.03207 13.0342 9.19592 12.8752L6.41038 10.0045ZM10.5188 6.01786L6.41037 10.0045L9.19592 12.8752L13.3044 8.88853L10.5188 6.01786ZM13.0894 4.56293C12.3503 4.59967 11.8011 4.91994 11.4335 5.19587C11.1112 5.43784 10.7814 5.76309 10.5188 6.01786L13.3044 8.88853C13.4596 8.73794 13.5722 8.62881 13.6694 8.53897C13.7669 8.44876 13.8154 8.40943 13.8349 8.39481C13.8529 8.38132 13.8063 8.41948 13.7075 8.46211C13.5959 8.5103 13.4512 8.54989 13.288 8.558L13.0894 4.56293ZM15.7915 5.75578C15.505 5.52831 15.1446 5.23736 14.7999 5.02855C14.4068 4.79042 13.8285 4.5262 13.0894 4.56293L13.288 8.558C13.1247 8.56611 12.9768 8.54107 12.861 8.50419C12.7585 8.47155 12.7083 8.43821 12.7275 8.44985C12.7484 8.46247 12.8005 8.49679 12.9065 8.57689C13.0121 8.65665 13.135 8.75407 13.3044 8.88853L15.7915 5.75578ZM19.2413 8.49462L15.7915 5.75578L13.3044 8.88853L16.7542 11.6274L19.2413 8.49462ZM19.6609 9.49103C19.9282 9.37845 20.1942 9.37289 20.3853 9.41009C20.5335 9.43896 20.5815 9.4828 20.4867 9.42799C20.3983 9.37694 20.2589 9.28365 20.0363 9.11631C19.8167 8.95121 19.5631 8.75013 19.2413 8.49462L16.7542 11.6274C17.3321 12.0862 17.9425 12.5776 18.4853 12.8913C19.0347 13.2088 20.0548 13.6653 21.2132 13.1775L19.6609 9.49103ZM19.2413 8.49462C19.1992 8.90338 19.1659 9.22524 19.1305 9.49772C19.0946 9.77391 19.0639 9.93883 19.0387 10.0377C19.0116 10.1439 19.0138 10.0789 19.0968 9.95264C19.2037 9.78997 19.3935 9.6036 19.6609 9.49103L21.2132 13.1775C22.3715 12.6898 22.7578 11.6411 22.9146 11.0262C23.0696 10.4187 23.1446 9.63875 23.2202 8.90467L19.2413 8.49462ZM19.6699 4.33531L19.2413 8.49462L23.2202 8.90467L23.6489 4.74536L19.6699 4.33531ZM20.737 1.51796C20.1755 2.02452 19.954 2.63554 19.847 3.09091C19.7531 3.49074 19.7084 3.96177 19.6699 4.33531L23.6489 4.74536C23.6716 4.52494 23.6882 4.36464 23.7055 4.22973C23.7228 4.09419 23.7351 4.03063 23.741 4.00551C23.7465 3.98213 23.7352 4.04221 23.6854 4.13992C23.629 4.25065 23.5405 4.37599 23.4165 4.48783L20.737 1.51796ZM23.6489 0.745361C23.2734 0.745361 22.8002 0.741487 22.3929 0.793914C21.929 0.853623 21.2984 1.0114 20.737 1.51796L23.4165 4.48783C23.2926 4.59967 23.1588 4.67486 23.0429 4.71965C22.9406 4.75917 22.8797 4.76426 22.9035 4.76119C22.9291 4.7579 22.9936 4.75212 23.1302 4.74879C23.2661 4.74548 23.4273 4.74536 23.6489 4.74536V0.745361ZM29.5258 0.745361H23.6489V4.74536H29.5258V0.745361ZM32.4377 1.51796C31.8763 1.0114 31.2458 0.853623 30.7818 0.793914C30.3745 0.741487 29.9014 0.745361 29.5258 0.745361V4.74536C29.7474 4.74536 29.9086 4.74548 30.0445 4.74879C30.1811 4.75212 30.2456 4.7579 30.2712 4.76119C30.2951 4.76426 30.2341 4.75917 30.1318 4.71965C30.0159 4.67486 29.8822 4.59967 29.7582 4.48783L32.4377 1.51796ZM34.0733 25.757C34.0733 29.6797 30.7789 32.9616 26.5874 32.9616V36.9616C32.8737 36.9616 38.0733 32.0015 38.0733 25.757H34.0733ZM26.5874 18.5523C30.7789 18.5523 34.0733 21.8343 34.0733 25.757H38.0733C38.0733 19.5125 32.8737 14.5523 26.5874 14.5523V18.5523ZM19.1014 25.757C19.1014 21.8343 22.3958 18.5523 26.5874 18.5523V14.5523C20.301 14.5523 15.1014 19.5125 15.1014 25.757H19.1014ZM26.5874 32.9616C22.3958 32.9616 19.1014 29.6797 19.1014 25.757H15.1014C15.1014 32.0015 20.301 36.9616 26.5874 36.9616V32.9616Z" fill="white"/>
</svg>
