<svg width="42" height="38" viewBox="0 0 42 38" fill="none" xmlns="http://www.w3.org/2000/svg">
<path fill-rule="evenodd" clip-rule="evenodd" d="M1.04518 1.12868C0.166504 2.00736 0.166504 3.42157 0.166504 6.25V31.75C0.166504 34.5784 0.166504 35.9926 1.04518 36.8713C1.92386 37.75 3.33808 37.75 6.16651 37.75H35.8332C38.6616 37.75 40.0758 37.75 40.9545 36.8713C41.8332 35.9926 41.8332 34.5784 41.8332 31.75V6.25C41.8332 3.42157 41.8332 2.00736 40.9545 1.12868C40.0758 0.25 38.6616 0.25 35.8332 0.25H6.1665C3.33808 0.25 1.92386 0.25 1.04518 1.12868ZM29.3332 11.75C29.8855 11.75 30.3332 12.1977 30.3332 12.75V29.4167C30.3332 29.969 29.8855 30.4167 29.3332 30.4167C28.7809 30.4167 28.3332 29.969 28.3332 29.4167V12.75C28.3332 12.1977 28.7809 11.75 29.3332 11.75ZM13.6665 16.9167C13.6665 16.3644 13.2188 15.9167 12.6665 15.9167C12.1142 15.9167 11.6665 16.3644 11.6665 16.9167V29.4167C11.6665 29.969 12.1142 30.4167 12.6665 30.4167C13.2188 30.4167 13.6665 29.969 13.6665 29.4167V16.9167ZM21.9998 21.0833C21.9998 20.531 21.5521 20.0833 20.9998 20.0833C20.4476 20.0833 19.9998 20.531 19.9998 21.0833V29.4167C19.9998 29.969 20.4476 30.4167 20.9998 30.4167C21.5521 30.4167 21.9998 29.969 21.9998 29.4167V21.0833Z" fill="white"/>
</svg>
