<svg width="249" height="83" viewBox="0 0 249 83" fill="none" xmlns="http://www.w3.org/2000/svg">
<g clip-path="url(#clip0_57_375)">
<path d="M0.0315247 64.2469V6.07681H10.3677V64.2469H0.0315247Z" fill="#503324"/>
<path d="M29.5946 65.2199C26.1517 65.2199 23.3244 64.6679 21.1145 63.5658C18.9029 62.4581 17.26 60.9892 16.1822 59.1574C15.1082 57.3274 14.573 55.3066 14.573 53.0949C14.573 49.3825 16.025 46.37 18.929 44.0535C21.8368 41.7333 26.2003 40.5732 32.0196 40.5732H42.1986V39.6077C42.1986 36.859 41.4164 34.8381 39.8559 33.5452C38.2935 32.2541 36.355 31.6067 34.0404 31.6067C31.9391 31.6067 30.1072 32.1063 28.5467 33.1036C26.9843 34.1028 26.0132 35.5698 25.6352 37.5045H15.5385C15.808 34.5968 16.7903 32.067 18.4875 29.9152C20.1827 27.7596 22.3794 26.1037 25.0739 24.9454C27.7683 23.7891 30.7846 23.209 34.1227 23.209C39.8297 23.209 44.3261 24.6367 47.6099 27.4902C50.8975 30.3455 52.5422 34.3835 52.5422 39.6077V64.2469H43.7329L42.7674 57.7802C41.5792 59.9358 39.9233 61.7152 37.7976 63.1167C35.672 64.5182 32.9364 65.2199 29.5946 65.2199ZM31.9372 57.1365C34.9011 57.1365 37.2026 56.1692 38.8455 54.2325C40.4921 52.2922 41.5287 49.8952 41.9591 47.0399H33.1497C30.4048 47.0399 28.4382 47.5395 27.2519 48.5368C26.0693 49.5304 25.478 50.756 25.478 52.2117C25.478 53.7741 26.0693 54.9866 27.2519 55.8492C28.4382 56.7081 30.0006 57.1365 31.9372 57.1365Z" fill="#503324"/>
<path d="M74.1907 52.2865C72.2541 52.2865 70.4503 52.0732 68.7793 51.6429L65.793 54.6367C66.7061 55.1213 67.9429 55.5255 69.5054 55.8492C71.0659 56.1692 73.5994 56.491 77.1022 56.8147C82.4349 57.2993 86.3119 58.5642 88.7332 60.6094C91.1582 62.6564 92.3707 65.4837 92.3707 69.0969C92.3707 71.4658 91.7233 73.7149 90.4322 75.8405C89.1392 77.9661 87.1465 79.6876 84.452 81.0048C81.7576 82.3259 78.3109 82.9882 74.1158 82.9882C68.4014 82.9882 63.7946 81.9217 60.2918 79.7923C56.7928 77.6667 55.0452 74.4783 55.0452 70.2271C55.0452 66.6195 56.7966 63.4966 60.2993 60.8564C59.2216 60.3736 58.2897 59.8609 57.5076 59.322C56.7292 58.7832 56.0425 58.2181 55.4493 57.623V55.7669L62.4773 48.3347C59.3525 45.586 57.792 42.0589 57.792 37.7515C57.792 35.0571 58.4506 32.6077 59.7679 30.4017C61.089 28.1919 62.9638 26.4405 65.3888 25.1475C67.8138 23.8564 70.7478 23.209 74.1907 23.209C76.4548 23.209 78.5561 23.5308 80.4927 24.1745H95.6864V30.4765L88.8155 30.963C89.8933 33.01 90.4322 35.2723 90.4322 37.7515C90.4322 40.4422 89.7848 42.8915 88.4937 45.1014C87.2007 47.3074 85.3296 49.057 82.8803 50.348C80.4291 51.641 77.5325 52.2865 74.1907 52.2865ZM74.1907 44.3754C76.2901 44.3754 78.0265 43.8103 79.3999 42.6764C80.7771 41.5443 81.4657 39.9277 81.4657 37.8264C81.4657 35.7269 80.7771 34.1121 79.3999 32.9838C78.0265 31.8518 76.2901 31.2848 74.1907 31.2848C71.9846 31.2848 70.2089 31.8518 68.8617 32.9838C67.5145 34.1121 66.8408 35.7269 66.8408 37.8264C66.8408 39.9277 67.5145 41.5443 68.8617 42.6764C70.2089 43.8103 71.9846 44.3754 74.1907 44.3754ZM64.4982 69.1717C64.4982 71.1664 65.4263 72.6614 67.2824 73.655C69.1423 74.6523 71.4214 75.1519 74.1158 75.1519C76.6999 75.1519 78.7974 74.6242 80.4104 73.5727C82.027 72.5248 82.8354 71.1121 82.8354 69.3364C82.8354 67.8844 82.3077 66.6719 81.2561 65.6989C80.2083 64.7296 78.122 64.1402 74.999 63.9251C72.7929 63.7604 70.7478 63.519 68.8617 63.199C67.2993 64.0579 66.1822 64.9972 65.5086 66.0207C64.835 67.048 64.4982 68.0977 64.4982 69.1717Z" fill="#503324"/>
<path d="M117.257 65.2199C113.375 65.2199 109.885 64.3311 106.786 62.5554C103.692 60.774 101.242 58.3097 99.4366 55.1606C97.6347 52.0077 96.7347 48.3571 96.7347 44.2107C96.7347 40.0642 97.6497 36.4174 99.4815 33.2683C101.311 30.1154 103.774 27.6511 106.869 25.8735C109.967 24.0978 113.455 23.209 117.332 23.209C121.159 23.209 124.618 24.0978 127.713 25.8735C130.812 27.6511 133.261 30.1154 135.063 33.2683C136.869 36.4174 137.773 40.0642 137.773 44.2107C137.773 48.3571 136.869 52.0077 135.063 55.1606C133.261 58.3097 130.799 60.774 127.676 62.5554C124.551 64.3311 121.078 65.2199 117.257 65.2199ZM117.257 56.2459C119.946 56.2459 122.287 55.2392 124.278 53.2221C126.273 51.2013 127.272 48.1981 127.272 44.2107C127.272 40.2252 126.273 37.2239 124.278 35.2068C122.287 33.1859 119.971 32.1755 117.332 32.1755C114.587 32.1755 112.231 33.1859 110.267 35.2068C108.3 37.2239 107.318 40.2252 107.318 44.2107C107.318 48.1981 108.3 51.2013 110.267 53.2221C112.231 55.2392 114.563 56.2459 117.257 56.2459Z" fill="#503324"/>
<path d="M159.668 64.2469C155.466 64.2469 152.101 63.2253 149.572 61.1782C147.042 59.1331 145.777 55.4974 145.777 50.2732V32.8192H138.906V24.1745H145.777L146.982 13.4342H156.113V24.1745H166.943V32.8192H156.113V50.348C156.113 52.2903 156.529 53.6244 157.363 54.3523C158.201 55.0764 159.642 55.4376 161.689 55.4376H166.696V64.2469H159.668Z" fill="#503324"/>
<path d="M188.51 64.2469C184.308 64.2469 180.943 63.2253 178.414 61.1782C175.884 59.1331 174.619 55.4974 174.619 50.2732V32.8192H167.748V24.1745H174.619L175.824 13.4342H184.955V24.1745H195.785V32.8192H184.955V50.348C184.955 52.2903 185.37 53.6244 186.205 54.3523C187.043 55.0764 188.484 55.4376 190.531 55.4376H195.538V64.2469H188.51Z" fill="#503324"/>
<path d="M218.729 65.2199C214.847 65.2199 211.357 64.3311 208.258 62.5554C205.164 60.774 202.714 58.3097 200.909 55.1606C199.107 52.0077 198.207 48.3571 198.207 44.2107C198.207 40.0642 199.122 36.4174 200.954 33.2683C202.783 30.1154 205.246 27.6511 208.341 25.8735C211.439 24.0978 214.927 23.209 218.804 23.209C222.631 23.209 226.09 24.0978 229.185 25.8735C232.284 27.6511 234.733 30.1154 236.535 33.2683C238.341 36.4174 239.245 40.0642 239.245 44.2107C239.245 48.3571 238.341 52.0077 236.535 55.1606C234.733 58.3097 232.271 60.774 229.148 62.5554C226.023 64.3311 222.55 65.2199 218.729 65.2199ZM218.729 56.2459C221.418 56.2459 223.759 55.2392 225.75 53.2221C227.745 51.2013 228.744 48.1981 228.744 44.2107C228.744 40.2252 227.745 37.2239 225.75 35.2068C223.759 33.1859 221.443 32.1755 218.804 32.1755C216.059 32.1755 213.703 33.1859 211.739 35.2068C209.772 37.2239 208.79 40.2252 208.79 44.2107C208.79 48.1981 209.772 51.2013 211.739 53.2221C213.703 55.2392 216.035 56.2459 218.729 56.2459Z" fill="#503324"/>
<mask id="mask0_57_375" style="mask-type:luminance" maskUnits="userSpaceOnUse" x="221" y="0" width="28" height="28">
<path d="M221.988 0.679016H248.812V27.0247H221.988V0.679016Z" fill="white"/>
</mask>
<g mask="url(#mask0_57_375)">
<mask id="mask1_57_375" style="mask-type:luminance" maskUnits="userSpaceOnUse" x="213" y="-9" width="45" height="45">
<path d="M228.86 35.9856L213.111 20.2343L241.816 -8.47087L257.567 7.27853L228.86 35.9856Z" fill="white"/>
</mask>
<g mask="url(#mask1_57_375)">
<mask id="mask2_57_375" style="mask-type:luminance" maskUnits="userSpaceOnUse" x="213" y="-9" width="45" height="46">
<path d="M213.175 20.2979L228.924 36.0492L257.629 7.34214L241.88 -8.40726L213.175 20.2979Z" fill="white"/>
</mask>
<g mask="url(#mask2_57_375)">
<path d="M242.015 20.3878C249.196 13.2082 248.466 0.838069 248.466 0.838069C248.466 0.838069 235.946 -0.0413682 228.765 7.1382C221.585 14.3178 222.465 26.8395 222.465 26.8395C222.465 26.8395 234.835 27.5673 242.015 20.3878Z" fill="#503324"/>
</g>
</g>
</g>
<mask id="mask3_57_375" style="mask-type:luminance" maskUnits="userSpaceOnUse" x="205" y="12" width="17" height="16">
<path d="M205.701 12.1753H221.03V27.5037H205.701V12.1753Z" fill="white"/>
</mask>
<g mask="url(#mask3_57_375)">
<mask id="mask4_57_375" style="mask-type:luminance" maskUnits="userSpaceOnUse" x="200" y="7" width="26" height="26">
<path d="M225.713 23.4714L216.823 32.3631L200.565 16.1047L209.455 7.21304L225.713 23.4714Z" fill="white"/>
</mask>
<g mask="url(#mask4_57_375)">
<mask id="mask5_57_375" style="mask-type:luminance" maskUnits="userSpaceOnUse" x="200" y="7" width="26" height="26">
<path d="M216.863 32.3238L225.752 23.4321L209.496 7.17375L200.604 16.0654L216.863 32.3238Z" fill="white"/>
</mask>
<g mask="url(#mask5_57_375)">
<path d="M216.909 16.0467C212.858 11.9938 205.879 12.4055 205.879 12.4055C205.879 12.4055 205.381 19.4709 209.434 23.5219C213.485 27.5748 220.551 27.0771 220.551 27.0771C220.551 27.0771 220.962 20.0977 216.909 16.0467Z" fill="#503324"/>
</g>
</g>
</g>
</g>
<defs>
<clipPath id="clip0_57_375">
<rect width="249" height="83" fill="white"/>
</clipPath>
</defs>
</svg>
