<svg width="210" height="70" viewBox="0 0 210 70" fill="none" xmlns="http://www.w3.org/2000/svg">
<path d="M0.235321 53.7777V4.75288H8.94649V53.7777H0.235321Z" fill="#F8F8EE"/>
<path d="M25.1506 54.5977C22.2489 54.5977 19.8661 54.1325 18.0037 53.2036C16.1398 52.2701 14.7552 51.0322 13.8469 49.4883C12.9417 47.946 12.4907 46.2429 12.4907 44.3789C12.4907 41.2502 13.7144 38.7113 16.1618 36.759C18.6124 34.8036 22.2899 33.8259 27.1943 33.8259H35.773V33.0121C35.773 30.6956 35.1138 28.9925 33.7986 27.9028C32.4819 26.8147 30.8481 26.269 28.8974 26.269C27.1265 26.269 25.5826 26.6901 24.2675 27.5306C22.9507 28.3727 22.1322 29.6091 21.8137 31.2396H13.3044C13.5315 28.789 14.3594 26.657 15.7897 24.8435C17.2184 23.0268 19.0698 21.6312 21.3406 20.655C23.6114 19.6805 26.1535 19.1916 28.9668 19.1916C33.7766 19.1916 37.566 20.3948 40.3336 22.7997C43.1043 25.2062 44.4905 28.6093 44.4905 33.0121V53.7777H37.0661L36.2524 48.3277C35.251 50.1443 33.8554 51.644 32.064 52.8252C30.2725 54.0063 27.967 54.5977 25.1506 54.5977ZM27.1249 47.7852C29.6228 47.7852 31.5625 46.9699 32.9471 45.3377C34.3348 43.7024 35.2085 41.6823 35.5712 39.2759H28.1468C25.8334 39.2759 24.176 39.6969 23.1762 40.5374C22.1796 41.3748 21.6812 42.4077 21.6812 43.6346C21.6812 44.9514 22.1796 45.9732 23.1762 46.7002C24.176 47.4241 25.4928 47.7852 27.1249 47.7852Z" fill="#F8F8EE"/>
<path d="M62.7355 43.6977C61.1033 43.6977 59.5831 43.5179 58.1749 43.1552L55.658 45.6784C56.4276 46.0868 57.47 46.4274 58.7868 46.7002C60.1019 46.9699 62.2372 47.2411 65.1892 47.5139C69.6836 47.9224 72.9511 48.9884 74.9917 50.712C77.0354 52.4372 78.0573 54.82 78.0573 57.8652C78.0573 59.8616 77.5117 61.7571 76.4236 63.5486C75.3339 65.34 73.6544 66.7908 71.3836 67.901C69.1127 69.0143 66.208 69.5726 62.6724 69.5726C57.8563 69.5726 53.9738 68.6737 51.0218 66.8791C48.0728 65.0877 46.5999 62.4005 46.5999 58.8177C46.5999 55.7773 48.076 53.1453 51.0281 50.9202C50.1197 50.5133 49.3344 50.0813 48.6752 49.6271C48.0192 49.1729 47.4405 48.6967 46.9406 48.1952V46.6308L52.8637 40.3671C50.2301 38.0506 48.9149 35.078 48.9149 31.4478C48.9149 29.177 49.47 27.1127 50.5802 25.2535C51.6936 23.3911 53.2737 21.915 55.3174 20.8253C57.3612 19.7372 59.8339 19.1916 62.7355 19.1916C64.6436 19.1916 66.4145 19.4628 68.0467 20.0053H80.8517V25.3165L75.0611 25.7266C75.9694 27.4518 76.4236 29.3583 76.4236 31.4478C76.4236 33.7155 75.8779 35.7797 74.7898 37.6421C73.7001 39.5014 72.1232 40.9758 70.0589 42.0639C67.9931 43.1536 65.5519 43.6977 62.7355 43.6977ZM62.7355 37.0303C64.5048 37.0303 65.9683 36.554 67.1258 35.5984C68.2864 34.6443 68.8667 33.2818 68.8667 31.5109C68.8667 29.7415 68.2864 28.3806 67.1258 27.4297C65.9683 26.4756 64.5048 25.9978 62.7355 25.9978C60.8762 25.9978 59.3797 26.4756 58.2443 27.4297C57.1089 28.3806 56.5411 29.7415 56.5411 31.5109C56.5411 33.2818 57.1089 34.6443 58.2443 35.5984C59.3797 36.554 60.8762 37.0303 62.7355 37.0303ZM54.5668 57.9282C54.5668 59.6093 55.349 60.8693 56.9133 61.7067C58.4808 62.5472 60.4016 62.9682 62.6724 62.9682C64.8502 62.9682 66.618 62.5235 67.9773 61.6373C69.3398 60.7542 70.0211 59.5636 70.0211 58.067C70.0211 56.8433 69.5764 55.8214 68.6901 55.0014C67.807 54.1845 66.0487 53.6878 63.4167 53.5064C61.5575 53.3677 59.8339 53.1642 58.2443 52.8946C56.9275 53.6184 55.9861 54.41 55.4183 55.2726C54.8506 56.1384 54.5668 57.0231 54.5668 57.9282Z" fill="#F8F8EE"/>
<path d="M134.775 53.7777C131.233 53.7777 128.397 52.9166 126.265 51.1914C124.133 49.4678 123.067 46.4038 123.067 42.0009V27.2909H117.277V20.0053H123.067L124.083 10.9535H131.778V20.0053H140.906V27.2909H131.778V42.064C131.778 43.7008 132.128 44.8252 132.832 45.4387C133.538 46.049 134.752 46.3533 136.478 46.3533H140.698V53.7777H134.775Z" fill="#F8F8EE"/>
<path d="M159.082 53.7777C155.54 53.7777 152.705 52.9166 150.573 51.1914C148.441 49.4678 147.375 46.4038 147.375 42.0009V27.2909H141.584V20.0053H147.375L148.39 10.9535H156.086V20.0053H165.213V27.2909H156.086V42.064C156.086 43.7008 156.436 44.8252 157.139 45.4387C157.846 46.049 159.06 46.3533 160.785 46.3533H165.005V53.7777H159.082Z" fill="#F8F8EE"/>
<path d="M184.55 54.5977C181.278 54.5977 178.337 53.8486 175.726 52.3521C173.117 50.8508 171.053 48.7739 169.531 46.1199C168.013 43.4627 167.254 40.386 167.254 36.8915C167.254 33.3969 168.025 30.3234 169.569 27.6694C171.111 25.0122 173.187 22.9353 175.795 21.4372C178.406 19.9407 181.346 19.1916 184.613 19.1916C187.838 19.1916 190.754 19.9407 193.362 21.4372C195.974 22.9353 198.038 25.0122 199.557 27.6694C201.078 30.3234 201.84 33.3969 201.84 36.8915C201.84 40.386 201.078 43.4627 199.557 46.1199C198.038 48.7739 195.963 50.8508 193.331 52.3521C190.697 53.8486 187.77 54.5977 184.55 54.5977ZM184.55 47.0345C186.816 47.0345 188.789 46.1861 190.467 44.4862C192.148 42.783 192.99 40.252 192.99 36.8915C192.99 33.5325 192.148 31.0031 190.467 29.3031C188.789 27.6 186.837 26.7484 184.613 26.7484C182.3 26.7484 180.315 27.6 178.659 29.3031C177.001 31.0031 176.173 33.5325 176.173 36.8915C176.173 40.252 177.001 42.783 178.659 44.4862C180.315 46.1861 182.279 47.0345 184.55 47.0345Z" fill="#F8F8EE"/>
<path d="M99.0314 54.5977C95.7592 54.5977 92.8181 53.8486 90.2067 52.3521C87.5983 50.8508 85.5341 48.7739 84.0123 46.1199C82.4937 43.4627 81.7352 40.386 81.7352 36.8915C81.7352 33.3969 82.5063 30.3234 84.0502 27.6694C85.5924 25.0122 87.6677 22.9353 90.276 21.4372C92.8875 19.9407 95.827 19.1916 99.0944 19.1916C102.319 19.1916 105.235 19.9407 107.843 21.4372C110.455 22.9353 112.519 25.0122 114.038 27.6694C115.56 30.3234 116.321 33.3969 116.321 36.8915C116.321 40.386 115.56 43.4627 114.038 46.1199C112.519 48.7739 110.444 50.8508 107.812 52.3521C105.178 53.8486 102.252 54.5977 99.0314 54.5977ZM99.0314 47.0345C101.297 47.0345 103.27 46.1861 104.948 44.4862C106.629 42.783 107.471 40.252 107.471 36.8915C107.471 33.5325 106.629 31.0031 104.948 29.3031C103.27 27.6 101.318 26.7484 99.0944 26.7484C96.781 26.7484 94.7956 27.6 93.1398 29.3031C91.4824 31.0031 90.6545 33.5325 90.6545 36.8915C90.6545 40.252 91.4824 42.783 93.1398 44.4862C94.7956 46.1861 96.7605 47.0345 99.0314 47.0345Z" fill="#F8F8EE"/>
<mask id="mask0_53_27" style="mask-type:luminance" maskUnits="userSpaceOnUse" x="187" y="0" width="23" height="23">
<path d="M187.296 0.203705H209.904V22.4074H187.296V0.203705Z" fill="white"/>
</mask>
<g mask="url(#mask0_53_27)">
<mask id="mask1_53_27" style="mask-type:luminance" maskUnits="userSpaceOnUse" x="179" y="-8" width="39" height="38">
<path d="M193.088 29.9595L179.815 16.6846L204.007 -7.50767L217.282 5.76567L193.088 29.9595Z" fill="white"/>
</mask>
<g mask="url(#mask1_53_27)">
<mask id="mask2_53_27" style="mask-type:luminance" maskUnits="userSpaceOnUse" x="179" y="-8" width="39" height="39">
<path d="M179.869 16.7382L193.142 30.0131L217.334 5.81928L204.061 -7.45406L179.869 16.7382Z" fill="white"/>
</mask>
<g mask="url(#mask2_53_27)">
<path d="M204.175 16.8139C210.227 10.7631 209.612 0.33775 209.612 0.33775C209.612 0.33775 199.06 -0.403424 193.008 5.6474C186.957 11.6982 187.698 22.2513 187.698 22.2513C187.698 22.2513 198.124 22.8647 204.175 16.8139Z" fill="#F8F8EE"/>
</g>
</g>
</g>
<mask id="mask3_53_27" style="mask-type:luminance" maskUnits="userSpaceOnUse" x="173" y="9" width="14" height="14">
<path d="M173.57 9.89259H186.489V22.8111H173.57V9.89259Z" fill="white"/>
</mask>
<g mask="url(#mask3_53_27)">
<mask id="mask4_53_27" style="mask-type:luminance" maskUnits="userSpaceOnUse" x="169" y="5" width="22" height="22">
<path d="M190.436 19.4128L182.944 26.9065L169.242 13.2042L176.734 5.71048L190.436 19.4128Z" fill="white"/>
</mask>
<g mask="url(#mask4_53_27)">
<mask id="mask5_53_27" style="mask-type:luminance" maskUnits="userSpaceOnUse" x="169" y="5" width="22" height="22">
<path d="M182.977 26.8732L190.469 19.3795L176.769 5.67718L169.275 13.1709L182.977 26.8732Z" fill="white"/>
</mask>
<g mask="url(#mask5_53_27)">
<path d="M183.016 13.1553C179.602 9.73963 173.72 10.0866 173.72 10.0866C173.72 10.0866 173.301 16.0412 176.716 19.4553C180.131 22.871 186.085 22.4516 186.085 22.4516C186.085 22.4516 186.432 16.5695 183.016 13.1553Z" fill="#F8F8EE"/>
</g>
</g>
</g>
</svg>
